<svg width="96" height="96" viewBox="0 0 96 96" fill="none" xmlns="http://www.w3.org/2000/svg">
<path fill-rule="evenodd" clip-rule="evenodd" d="M55.2071 24.7363C54.0359 24.6166 52.5129 24.6128 50.2079 24.6128H48.2322C47.4879 24.6128 46.774 24.3172 46.2477 23.7909C45.7214 23.2646 45.4258 22.5507 45.4258 21.8064C45.4258 21.0621 45.7214 20.3483 46.2477 19.822C46.774 19.2957 47.4879 19 48.2322 19H50.3463C52.4792 19 54.2903 19 55.7871 19.1534C57.3774 19.3181 58.8517 19.6773 60.2399 20.5379C61.6356 21.3986 62.6123 22.5548 63.4729 23.9056C64.2288 25.0955 64.9921 26.5998 65.8677 28.3547H70.1896C71.2523 28.3547 72.2289 28.3547 73.0409 28.4296C73.9203 28.5044 74.8745 28.6878 75.8024 29.2154C76.8202 29.7954 77.6622 30.6373 78.2422 31.6551C78.7698 32.5831 78.9531 33.5373 79.028 34.4166C79.1028 35.2286 79.1028 36.2052 79.1028 37.2679V37.6159C79.1028 38.5888 79.1065 39.6291 78.7922 40.6169C78.5776 41.2776 78.262 41.9012 77.8567 42.4654C77.2506 43.3036 76.4124 43.921 75.6266 44.4935L75.432 44.6395L74.3955 45.4028L76.2178 49.0474C78.775 49.3774 81.1919 50.4056 83.2031 52.0192C85.2142 53.6328 86.7419 55.7693 87.6184 58.1942C88.4949 60.6191 88.6863 63.2386 88.1716 65.7651C87.6569 68.2917 86.456 70.6276 84.7008 72.5163C82.9455 74.4051 80.7038 75.7737 78.2217 76.472C75.7396 77.1702 73.1131 77.171 70.6305 76.4743C68.148 75.7776 65.9054 74.4104 64.149 72.5227C62.3926 70.635 61.1902 68.2999 60.674 65.7737H41.4032C40.7551 68.9459 39.0303 71.7965 36.5209 73.8425C34.0115 75.8884 30.872 77.004 27.6343 77C24.3965 76.996 21.2597 75.8728 18.7554 73.8207C16.251 71.7686 14.5331 68.9138 13.8928 65.74C12.2264 65.5723 10.6876 64.7726 9.59283 63.5052C8.49803 62.2378 7.93046 60.5991 8.00682 58.926V58.7127C8.00682 57.4592 8.00682 56.6622 8.06294 55.9624C8.39548 51.7443 10.2219 47.7831 13.2139 44.7912C16.2058 41.7993 20.1669 39.9728 24.3851 39.6403C25.0848 39.5842 25.8818 39.5842 27.1354 39.5842H29.7173C33.0775 39.5842 35.8839 39.5842 38.1066 39.8835C40.4565 40.1978 42.5782 40.8938 44.2807 42.6001C45.987 44.3027 46.683 46.4243 46.9973 48.7742C47.2967 50.9969 47.2967 53.8034 47.2967 57.1636V60.1646H60.674C61.1778 57.7119 62.327 55.4381 64.0031 53.5779C65.6791 51.7176 67.8212 50.3384 70.2083 49.5825L61.0856 31.3408C60.0528 29.2752 59.3718 27.9169 58.7357 26.9253C58.137 25.9824 57.7104 25.5745 57.2913 25.3163C56.8759 25.0544 56.3184 24.8523 55.2071 24.7363ZM41.6839 60.1608V57.3544C41.6839 53.7472 41.6764 51.3225 41.4369 49.5151C41.2012 47.7901 40.8008 47.0492 40.3143 46.5628C39.8279 46.0763 39.087 45.676 37.3582 45.4402C35.5546 45.2007 33.1299 45.1933 29.5227 45.1933H27.2776C25.8332 45.1933 25.2757 45.1933 24.8266 45.2307C21.9399 45.4579 19.229 46.7076 17.1815 48.7551C15.134 50.8026 13.8843 53.5135 13.6571 56.4002C13.6091 57.3399 13.5967 58.281 13.6197 59.2216C13.6571 59.6781 14.1024 60.1197 14.5551 60.1571L41.6839 60.1608ZM19.7115 65.7737C20.2908 67.4169 21.3656 68.84 22.7878 69.8465C24.21 70.8531 25.9094 71.3937 27.6518 71.3937C29.3941 71.3937 31.0936 70.8531 32.5157 69.8465C33.9379 68.84 35.0128 67.4169 35.5921 65.7737H19.7115ZM66.0062 62.9673C66.0062 60.7343 66.8932 58.5929 68.4721 57.0139C70.051 55.435 72.1925 54.548 74.4254 54.548C76.6584 54.548 78.7998 55.435 80.3787 57.0139C81.9577 58.5929 82.8447 60.7343 82.8447 62.9673C82.8447 65.2002 81.9577 67.3416 80.3787 68.9206C78.7998 70.4995 76.6584 71.3865 74.4254 71.3865C72.1925 71.3865 70.051 70.4995 68.4721 68.9206C66.8932 67.3416 66.0062 65.2002 66.0062 62.9673ZM71.8435 40.3101L72.1054 40.1192C72.6218 39.7376 72.9137 39.5205 73.1233 39.3484L73.3103 39.1725C73.3665 39.0915 73.4118 39.0035 73.4451 38.9106C73.4376 38.9331 73.46 38.8919 73.4712 38.6524C73.49 38.3793 73.49 38.0163 73.49 37.3764C73.49 36.1678 73.49 35.4494 73.4413 34.918C73.4318 34.7533 73.4042 34.5902 73.359 34.4316C73.2797 34.2931 73.1664 34.1771 73.0297 34.0948C72.8696 34.0518 72.7052 34.0267 72.5395 34.02C71.7211 33.9688 70.9009 33.9514 70.0811 33.9676H68.6779L71.8435 40.3101Z" fill="#FF4D00"/>
</svg>
