<svg width="160" height="160" viewBox="0 0 160 160" fill="none" xmlns="http://www.w3.org/2000/svg">
<g opacity="0.2">
<path d="M135.592 59.7759C118.184 82.9919 102.832 83.7919 79.2239 84.9919H78.4159C49.6879 84.9759 29.3119 74.3039 29.3119 70.3359C29.2959 66.5679 47.6959 56.7599 74.1519 55.7839L78.8719 43.9999L78.4159 43.9839C39.1519 43.9839 16.0879 56.4799 16.0879 68.3919V84.3919C16.0879 91.7359 20.7439 155.984 76.7439 155.984C132.744 155.984 140.744 91.7359 140.744 84.3919V68.3919C140.744 65.2639 139.136 62.0959 136.072 59.1279L135.592 59.7759ZM140.712 21.6159C139.014 20.3463 136.882 19.8024 134.783 20.1039C132.685 20.4055 130.792 21.5276 129.52 23.2239L100.656 61.6959L119.344 14.9919C119.753 14.0128 119.963 12.9621 119.963 11.901C119.962 10.8398 119.75 9.78944 119.339 8.81098C118.928 7.83253 118.327 6.94556 117.57 6.20173C116.814 5.45789 115.916 4.87205 114.931 4.47831C113.945 4.08457 112.892 3.89082 111.831 3.90831C110.77 3.92581 109.723 4.15422 108.751 4.58024C107.779 5.00625 106.901 5.62137 106.17 6.38976C105.438 7.15815 104.866 8.06446 104.488 9.05592L78.4159 74.1919C101.472 73.0159 112.632 72.3759 126.952 53.3039L142.304 32.8159C143.578 31.1195 144.126 28.9866 143.827 26.8863C143.529 24.7859 142.408 22.8902 140.712 21.6159Z" fill="white"/>
</g>
</svg>
