<svg width="120" height="110" viewBox="0 0 120 110" fill="none" xmlns="http://www.w3.org/2000/svg">
<g opacity="0.2">
<path d="M44.7494 10.8418C44.7494 10.8418 41.747 12.4168 38.7208 14.7329C37.2197 15.891 35.6708 17.2349 34.4318 18.7694C33.1927 20.3039 32.1681 22.0791 32.1681 24.1855C32.1681 26.2348 33.2642 27.9266 34.5509 29.0941C35.8138 30.2379 37.2912 31.048 38.6732 31.8105C40.0552 32.573 41.3658 33.3117 42.2474 34.0266C43.129 34.7414 43.5341 35.3133 43.6294 35.9566C43.8915 37.5293 42.3904 41.2227 40.4841 44.1773C38.554 47.132 36.5287 49.4434 36.5287 49.4434L39.7216 52.3027C39.7216 52.3027 41.9615 49.777 44.0822 46.5125C46.2029 43.248 48.5142 39.3164 47.8708 35.2895C47.5372 33.2641 46.2982 31.7629 44.94 30.6906C43.6056 29.5945 42.1044 28.8082 40.7462 28.0457C39.388 27.307 38.149 26.5684 37.4103 25.9012C36.6716 25.234 36.4572 24.8289 36.4572 24.1855C36.4572 23.5922 36.8622 22.5843 37.7677 21.4668C38.6732 20.3468 39.9837 19.1697 41.3419 18.1404C44.0345 16.084 46.7509 14.6352 46.7509 14.6352L44.7494 10.8418ZM66.1947 18.5693C66.1947 18.5693 63.24 19.6796 60.2138 21.3238C58.7126 22.1459 57.1638 23.0918 55.9009 24.2094C54.6142 25.3293 53.3751 26.6875 53.3751 28.7129C53.3751 30.6668 54.7333 32.0488 56.0201 32.8828C57.3068 33.693 58.7365 34.2648 60.1423 34.8129C61.5244 35.3371 62.8587 35.8852 63.7404 36.3855C64.622 36.9098 64.8603 37.3148 64.8603 37.3387C64.908 37.4816 64.8126 38.2203 64.2646 39.1973C63.7404 40.1504 62.8349 41.2941 61.9056 42.3188C60.0232 44.3918 57.9978 46.0359 57.9978 46.0359L60.6665 49.3719C60.6665 49.3719 62.9064 47.5848 65.0747 45.2258C66.147 44.0344 67.2193 42.7238 68.0294 41.2703C68.8158 39.8406 69.4591 38.2203 69.054 36.3855C68.6251 34.527 67.2193 33.4547 65.8849 32.6684C64.5505 31.9059 63.0732 31.3578 61.6912 30.8098C60.3329 30.2617 59.0701 29.7375 58.3552 29.2609C57.8072 28.9273 57.688 28.7605 57.6642 28.7129C57.7119 28.7129 57.9263 28.141 58.7126 27.4262C59.5943 26.6637 60.9048 25.8297 62.263 25.091C64.9556 23.6232 67.7197 22.5819 67.7197 22.5819L66.1947 18.5693ZM82.2786 21.624C81.397 21.7884 80.4201 22.6653 79.6814 24.1617C78.9427 25.6629 78.5853 27.6168 78.7044 28.975C78.7283 29.2371 79.6814 30.9289 80.849 32.1441C82.0404 33.3594 83.208 34.2648 83.208 34.2648L84.2802 35.075L81.7544 47.2988L85.1618 48.3473L90.4279 38.2918C89.2126 36.9812 87.9974 35.4562 87.8306 33.2879C87.7115 31.477 87.9736 29.5469 88.6408 27.7121C87.1396 27.307 86.7822 26.5207 86.2341 25.8059C85.6384 25.091 85.0665 24.2809 84.4947 23.5732C83.9228 22.8559 83.3271 22.234 82.8744 21.9147C82.4454 21.5978 82.3263 21.6264 82.2786 21.6264V21.624ZM95.6939 25.5914C94.8122 25.7582 93.8353 26.616 93.0966 28.1172C92.3818 29.6184 92.0005 31.5723 92.1197 32.9543C92.1435 33.2164 93.0966 34.9082 94.2642 36.1234C95.4556 37.3387 96.6232 38.2441 96.6232 38.2441L97.6954 39.0543L95.1458 51.302L98.5533 52.3742L104.701 40.627L105.583 40.3887C105.583 40.3887 107.822 39.7215 110.158 38.6254C111.325 38.0773 112.493 37.4102 113.327 36.743C114.185 36.052 114.637 35.4086 114.709 35.0988V35.075C115.066 33.8359 114.804 31.8582 113.994 30.1664C113.16 28.4984 111.849 27.2355 110.706 26.8781C110.658 26.8543 110.539 26.8305 110.038 27.1164C109.538 27.4023 108.847 27.9742 108.132 28.6414C107.417 29.3324 106.679 30.0711 105.797 30.7145C104.939 31.3578 103.724 32.0965 102.151 31.6914C100.579 31.3102 100.221 30.4762 99.6494 29.7613C99.0537 29.0465 98.4818 28.2363 97.9099 27.5215C97.338 26.8066 96.7423 26.1871 96.2896 25.8773C95.8607 25.5437 95.7415 25.5914 95.6939 25.5914ZM22.0078 28.5699C22.0078 28.5699 19.0293 29.8566 16.0007 31.7867C14.4853 32.7637 12.9436 33.8598 11.6807 35.1703C10.4178 36.4809 9.28834 38.0297 9.28834 40.0551C9.28834 42.009 10.5322 43.5578 11.8117 44.5109C13.0937 45.4641 14.5472 46.1313 15.934 46.7746C17.3208 47.3941 18.6385 48.0137 19.5225 48.6094C20.4042 49.2051 20.7044 49.6578 20.764 49.9676C20.8474 50.3965 20.6925 51.3973 20.123 52.5887C19.5559 53.7562 18.6552 55.1145 17.7044 56.3297C15.8053 58.7602 13.7728 60.6664 13.7728 60.6664L16.7132 63.8117C16.7132 63.8117 18.9459 61.7148 21.0856 58.9508C22.1555 57.5926 23.2159 56.0437 23.9951 54.4234C24.7814 52.8031 25.3533 51.0398 24.972 49.1574C24.6146 47.2512 23.2612 45.9645 21.9196 45.059C20.5757 44.1535 19.0888 43.4863 17.7235 42.8668C16.3581 42.2473 15.1143 41.6277 14.3828 41.0797C13.6537 40.5316 13.575 40.3172 13.575 40.0551C13.575 39.8406 13.8753 39.0781 14.7569 38.1488C15.6385 37.2434 16.9562 36.2664 18.3001 35.4086C20.9903 33.693 23.7306 32.4777 23.7306 32.4777L22.0078 28.5699ZM78.8474 50.873C78.2994 51.2543 77.0126 52.1836 75.2255 53.5418C78.0849 54.1375 81.0158 54.9238 83.9704 55.877C84.3517 55.5672 84.6853 55.3051 85.0427 55.0191C84.9236 54.0184 84.8044 53.232 84.7329 52.7078L78.8474 50.873ZM92.2865 54.8762C91.2142 55.6387 87.6161 58.2598 82.9458 62.3344C77.513 67.0523 71.4607 73.2 69.054 78.0848C67.2431 81.7543 65.1701 86.234 64.1455 90.4754C63.1208 94.7168 63.1685 98.5055 64.9318 101.15C65.9326 102.652 67.4814 103.128 69.7927 103.08C72.104 103.057 74.8681 102.318 77.1556 101.603C85.1857 98.982 93.597 93.2395 97.4095 84.9711C99.1251 81.2539 99.4587 73.6527 99.1251 67.2191C98.863 61.977 98.3388 58.2359 98.1244 56.7348L92.2865 54.8762ZM65.6228 56.8062C65.3607 56.8062 65.0747 56.8063 64.8126 56.8301C55.6865 57.3066 45.2497 59.0938 36.2904 62.7871C27.3072 66.4566 19.8609 71.9609 16.2462 79.7527C14.938 82.5645 15.019 86.3531 16.208 89.5461C17.397 92.7391 19.6107 95.0981 21.9411 95.7176C32.1681 98.3863 46.0599 99.5301 59.6658 99.7684C58.8318 96.623 59.1177 93.1918 59.8802 89.9035C52.4697 92.7152 41.6517 93.3824 27.9982 89.0695L25.9728 88.4262L26.5923 86.4008C28.3556 80.4437 33.7408 72.652 42.5095 68.625L44.3204 72.5328C37.9107 75.4637 33.4548 81.1586 31.4771 85.6144C45.6548 89.5938 55.9486 87.5207 61.572 84.3516C62.6681 81.373 64.0025 78.5852 65.1939 76.1785C68.1724 70.1738 74.4154 64.0738 79.9912 59.2367C75.0587 57.807 70.3169 56.8539 66.4091 56.8062H65.6228ZM103.486 68.5535C103.748 74.8441 103.557 81.8734 101.317 86.782C99.0775 91.6191 95.6224 95.5984 91.5954 98.7676C93.4779 98.6008 95.265 98.434 96.8615 98.2434C99.8162 97.9336 102.247 97.5762 103.962 97.2426C104.82 97.052 105.511 96.8852 105.964 96.766C106.131 96.6945 106.226 96.6469 106.297 96.5992C109.181 93.0012 111.968 89.5938 113.827 86.0672C115.567 82.6836 116.52 79.2523 116.067 75.1063C115.09 74.5344 110.348 71.8418 103.486 68.5535ZM12.6624 92.191C11.3757 92.7629 10.251 93.3348 9.31693 93.9305C6.72205 95.5746 5.82373 97.0281 5.82373 98.0527C5.82373 99.0773 6.72205 100.531 9.31693 102.175C11.9118 103.819 15.9388 105.416 20.9808 106.774C31.072 109.443 45.2497 111.158 60.881 111.158C76.5122 111.158 90.69 109.443 100.769 106.774C105.821 105.416 109.824 103.819 112.421 102.175C115.018 100.531 115.924 99.0773 115.924 98.0527C115.924 97.1711 115.233 95.9559 113.374 94.5738C112.064 96.2895 110.706 97.9574 109.371 99.6254L109.3 99.7445L109.181 99.8398C108.418 100.555 107.918 100.626 107.227 100.841C106.56 101.055 105.749 101.246 104.796 101.436C102.89 101.818 100.364 102.175 97.338 102.509C93.5017 102.938 88.8552 103.319 83.7322 103.605C81.9689 104.439 80.2056 105.13 78.4661 105.702H78.4423C76.0357 106.464 72.9619 107.322 69.8642 107.37C67.0048 107.441 63.8119 106.631 61.7865 104.105C47.3466 103.962 32.2872 102.842 20.8593 99.8637C17.0658 98.8629 14.2946 95.8129 12.6624 92.191Z" fill="white"/>
</g>
</svg>
