<svg width="64" height="64" viewBox="0 0 64 64" fill="none" xmlns="http://www.w3.org/2000/svg">
<path d="M12.256 44.6667V52.1547C12.256 52.4943 12.1449 52.7761 11.9227 53.0001C11.7004 53.2223 11.4196 53.3334 11.08 53.3334C10.7404 53.3334 10.4578 53.2223 10.232 53.0001C10.0062 52.7778 9.89422 52.4961 9.89599 52.1547V44.4801C9.30222 44.2578 8.80711 43.9121 8.41066 43.4427C8.01422 42.9752 7.77155 42.4161 7.68266 41.7654L5.49333 21.9467C5.43999 21.5681 5.54577 21.2258 5.81066 20.9201C6.07555 20.6143 6.41511 20.4623 6.82933 20.4641C7.16355 20.4641 7.46577 20.5832 7.73599 20.8214C8.00444 21.0578 8.16355 21.3458 8.21333 21.6854L10.1867 38.9761H21.1253C22.3111 38.9761 23.3253 39.3983 24.168 40.2427C25.0107 41.0872 25.4329 42.1005 25.4347 43.2827C25.4347 43.6774 25.3013 44.0063 25.0347 44.2694C24.768 44.5325 24.4391 44.6658 24.048 44.6694H23.3813V52.2081C23.3813 52.5121 23.2773 52.7761 23.0693 53.0001C22.8613 53.2241 22.5982 53.3352 22.28 53.3334C21.9618 53.3316 21.6818 53.2116 21.44 52.9734C21.1982 52.7352 21.0773 52.4623 21.0773 52.1547V44.6667H12.256ZM22.512 23.5894C21.9467 23.5894 21.472 23.3983 21.088 23.0161C20.704 22.6321 20.512 22.1565 20.512 21.5894C20.512 19.1361 21.5058 17.1467 23.4933 15.6214C25.4791 14.0961 27.7849 13.3334 30.4107 13.3334H30.6667V6.66673C30.6667 6.28806 30.7947 5.97161 31.0507 5.71739C31.3067 5.46317 31.624 5.33517 32.0027 5.33339C32.3813 5.33161 32.6978 5.45961 32.952 5.71739C33.2062 5.97517 33.3333 6.29161 33.3333 6.66673V13.3334H33.6427C36.2667 13.3334 38.5724 14.0961 40.56 15.6214C42.5476 17.1467 43.5404 19.1361 43.5387 21.5894C43.5387 22.1565 43.3467 22.6321 42.9627 23.0161C42.5804 23.3983 42.1058 23.5894 41.5387 23.5894H22.512ZM23.3493 20.9227H40.6507C40.5387 19.3601 39.7831 18.1494 38.384 17.2907C36.9849 16.4321 35.4044 16.0018 33.6427 16.0001H30.4107C28.6471 16.0001 27.0578 16.4214 25.6427 17.2641C24.2258 18.1067 23.4613 19.3263 23.3493 20.9227ZM52.2347 53.0001C52.0107 52.7761 51.8987 52.4943 51.8987 52.1547V44.6667H42.9227V52.1547C42.9227 52.457 42.8107 52.729 42.5867 52.9707C42.3627 53.2125 42.0987 53.3334 41.7947 53.3334C41.4907 53.3334 41.2178 53.2214 40.976 52.9974C40.7342 52.7734 40.6142 52.5094 40.616 52.2054V44.6667H39.9493C39.5564 44.6667 39.2276 44.5334 38.9627 44.2667C38.6978 44.0001 38.5644 43.6712 38.5627 43.2801C38.5627 42.0978 38.9849 41.0845 39.8293 40.2401C40.6738 39.3956 41.688 38.9734 42.872 38.9734H53.8267L55.904 21.5787C55.9502 21.2534 56.0996 20.9778 56.352 20.7521C56.6062 20.5245 56.9173 20.4107 57.2853 20.4107C57.6658 20.4445 57.9858 20.6045 58.2453 20.8907C58.5067 21.1787 58.6098 21.5121 58.5547 21.8907L56.3333 41.7681C56.2444 42.3832 56.016 42.9254 55.648 43.3947C55.28 43.8641 54.816 44.2098 54.256 44.4321V52.1547C54.256 52.4943 54.1449 52.7761 53.9227 53.0001C53.7004 53.2223 53.4196 53.3334 53.08 53.3334C52.7404 53.3334 52.4604 53.2223 52.2347 53.0001ZM30.6667 32.6134H16.72C16.3413 32.6134 16.024 32.4854 15.768 32.2294C15.512 31.9734 15.384 31.6561 15.384 31.2774C15.384 30.8987 15.512 30.5823 15.768 30.3281C16.024 30.0738 16.3404 29.9467 16.7173 29.9467H47.2827C47.6596 29.9467 47.976 30.0747 48.232 30.3307C48.488 30.5867 48.616 30.9041 48.616 31.2827C48.616 31.6614 48.488 31.9778 48.232 32.2321C47.976 32.4863 47.6596 32.6134 47.2827 32.6134H33.3333V52.0001C33.3333 52.3787 33.2053 52.6952 32.9493 52.9494C32.6933 53.2036 32.376 53.3316 31.9973 53.3334C31.6187 53.3352 31.3022 53.2072 31.048 52.9494C30.7938 52.6916 30.6667 52.3752 30.6667 52.0001V32.6134Z" fill="white"/>
</svg>
