<svg width="96" height="96" viewBox="0 0 96 96" fill="none" xmlns="http://www.w3.org/2000/svg">
<path d="M22.0621 68.4444V78.4284C22.0621 78.8812 21.9135 79.2569 21.6164 79.5555C21.3192 79.8518 20.9435 80 20.4894 80C20.0353 80 19.6572 79.8518 19.3553 79.5555C19.0533 79.2592 18.9036 78.8835 18.9059 78.4284V68.1955C18.1118 67.8992 17.4497 67.4382 16.9195 66.8124C16.3893 66.189 16.0648 65.4435 15.9459 64.576L13.0179 38.1511C12.9466 37.6462 13.0881 37.1899 13.4423 36.7822C13.7966 36.3745 14.2507 36.1719 14.8047 36.1742C15.2516 36.1742 15.6558 36.333 16.0172 36.6507C16.3762 36.9659 16.589 37.3499 16.6556 37.8027L19.2947 60.8569H33.9238C35.5096 60.8569 36.866 61.4198 37.9929 62.5458C39.1199 63.6717 39.6846 65.0228 39.6869 66.5991C39.6869 67.1253 39.5086 67.5638 39.152 67.9146C38.7954 68.2655 38.3555 68.4432 37.8324 68.448H36.9409V78.4995C36.9409 78.9049 36.8018 79.2569 36.5236 79.5555C36.2454 79.8542 35.8936 80.0023 35.468 80C35.0424 79.9976 34.6679 79.8376 34.3446 79.52C34.0212 79.2023 33.8596 78.8385 33.8596 78.4284V68.4444H22.0621ZM35.7782 40.3413C35.0222 40.3413 34.3874 40.0865 33.8738 39.5769C33.3603 39.0649 33.1035 38.4308 33.1035 37.6747C33.1035 34.4036 34.4325 31.7511 37.0907 29.7173C39.7464 27.6836 42.8301 26.6667 46.3417 26.6667H46.6841V17.7778C46.6841 17.2729 46.8553 16.851 47.1976 16.512C47.54 16.1731 47.9644 16.0024 48.4708 16C48.9772 15.9977 49.4004 16.1683 49.7404 16.512C50.0804 16.8557 50.2504 17.2777 50.2504 17.7778V26.6667H50.6641C54.1734 26.6667 57.2571 27.6836 59.9152 29.7173C62.5733 31.7511 63.9011 34.4036 63.8987 37.6747C63.8987 38.4308 63.642 39.0649 63.1284 39.5769C62.6172 40.0865 61.9824 40.3413 61.224 40.3413H35.7782ZM36.8981 36.7858H60.0364C59.8866 34.7022 58.8762 33.088 57.005 31.9431C55.1339 30.7982 53.0203 30.2246 50.6641 30.2222H46.3417C43.9832 30.2222 41.8576 30.784 39.9651 31.9076C38.0702 33.0311 37.0479 34.6572 36.8981 36.7858ZM75.5285 79.5555C75.229 79.2569 75.0792 78.8812 75.0792 78.4284V68.4444H63.0749V78.4284C63.0749 78.8314 62.9251 79.194 62.6256 79.5164C62.326 79.8388 61.9729 80 61.5664 80C61.1598 80 60.7949 79.8506 60.4715 79.552C60.1482 79.2533 59.9877 78.9013 59.9901 78.496V68.4444H59.0985C58.573 68.4444 58.1332 68.2666 57.7789 67.9111C57.4247 67.5555 57.2464 67.117 57.244 66.5955C57.244 65.0192 57.8086 63.6681 58.938 62.5422C60.0673 61.4163 61.4237 60.8533 63.0072 60.8533H77.6576L80.4358 37.6604C80.4976 37.2267 80.6973 36.8593 81.035 36.5582C81.3749 36.2548 81.791 36.1031 82.2832 36.1031C82.792 36.1482 83.2199 36.3615 83.567 36.7431C83.9165 37.1271 84.0545 37.5716 83.9808 38.0764L81.01 64.5795C80.8911 65.3997 80.5856 66.1227 80.0934 66.7484C79.6013 67.3742 78.9808 67.8352 78.2318 68.1315V78.4284C78.2318 78.8812 78.0832 79.2569 77.786 79.5555C77.4888 79.8518 77.1132 80 76.6591 80C76.205 80 75.8305 79.8518 75.5285 79.5555ZM46.6841 52.3733H28.0322C27.5258 52.3733 27.1014 52.2027 26.759 51.8613C26.4166 51.52 26.2454 51.0969 26.2454 50.592C26.2454 50.0871 26.4166 49.6652 26.759 49.3262C27.1014 48.9873 27.5246 48.8178 28.0286 48.8178H68.9059C69.4099 48.8178 69.8331 48.9884 70.1755 49.3298C70.5179 49.6711 70.689 50.0942 70.689 50.5991C70.689 51.104 70.5179 51.5259 70.1755 51.8649C69.8331 52.2038 69.4099 52.3733 68.9059 52.3733H50.2504V78.2222C50.2504 78.7271 50.0792 79.149 49.7369 79.488C49.3945 79.8269 48.9701 79.9976 48.4637 80C47.9573 80.0023 47.5341 79.8317 47.1941 79.488C46.8541 79.1443 46.6841 78.7223 46.6841 78.2222V52.3733Z" fill="#FF4D00"/>
</svg>
