<svg width="165" height="166" viewBox="0 0 165 166" fill="none" xmlns="http://www.w3.org/2000/svg">
<g opacity="0.2" clip-path="url(#clip0_1_1734)">
<path d="M117.818 98.6408L112.189 94.5944C111.684 95.3381 111.174 96.0784 110.649 96.8082C110.125 97.538 109.585 98.2573 109.041 98.9731L114.67 103.02L117.818 98.6408ZM106.27 93.6606C113.055 84.222 117.291 74.3161 119.315 66.5836C120.318 62.7296 120.767 59.3997 120.772 57.042C120.761 54.968 120.133 53.9631 120.329 53.9933L107.976 47.6594C101.947 52.6598 98.0219 58.3247 95.1509 64.5257L90.2749 62.2751C93.1041 56.081 97.0364 50.2001 102.798 45.0074L62.1869 24.1526C58.8022 26.2947 55.7086 30.085 53.1875 33.4382L48.8787 30.1933C50.9209 27.455 53.5013 24.0707 56.7971 21.385L51.5464 18.6805C50.1961 19.481 47.948 21.2225 46.0268 23.1252C43.5955 25.5837 41.3298 28.5302 40.92 29.3056L36.1353 26.8254C37.2598 24.6452 39.514 22.0225 42.2282 19.3246C43.4614 18.0711 44.7014 16.8594 45.9931 15.8324L35.0743 10.2342C34.0016 10.2379 30.7272 11.6106 27.1061 14.8003C23.2963 18.1497 19.0502 23.03 15.2905 28.2602C11.5309 33.4903 8.25775 39.0702 6.29683 43.7485C4.42715 48.1972 4.16922 51.7383 4.50746 52.7563L9.53909 57.6646C10.1025 55.5976 10.8819 53.5382 11.8072 51.5837C13.8753 47.1669 16.5059 43.3021 19.0589 40.9311L22.7458 44.8359C21.0762 46.4398 18.5057 50.0158 16.69 53.8761C15.3511 56.714 14.4538 59.7586 14.234 62.2202L39.0554 86.4091C43.2756 71.6587 49.8125 63.5916 55.7884 55.6377L60.0971 58.8826C53.6073 67.5002 47.3578 74.9622 43.4515 90.7131L67.0924 113.721C69.2994 100.18 78.575 87.0715 87.5919 76.5809L91.6908 80.1178C81.9227 91.3966 72.5703 105.742 72.0199 118.518L73.1498 119.625C73.0587 119.449 74.2114 119.724 76.1807 119.074C78.414 118.318 81.4272 116.831 84.7607 114.652C91.4454 110.27 99.4855 103.099 106.27 93.6606ZM84.3223 49.7683C82.9501 50.9587 79.6892 54.7764 76.6435 58.8593C73.6221 62.9598 70.6098 67.5096 69.2222 70.3125L64.4025 67.881C66.1193 64.4661 69.1734 59.9095 72.2997 55.6631C75.4679 51.4098 78.5022 47.6507 80.7754 45.6689L84.3223 49.7683ZM33.3321 67.1674L30.7504 66.3447L28.1687 65.522C30.9813 56.7332 37.1094 46.8225 43.2912 41.0459L45.1346 42.9983L46.978 44.9507C41.8089 49.8318 35.7721 59.5129 33.3321 67.1674ZM12.5099 22.9407L1.05232 14.7044L-2.09529 19.0831L9.36234 27.3194C9.86262 26.5721 10.3872 25.8423 10.9118 25.1126C11.4364 24.3828 11.961 23.653 12.5099 22.9407Z" fill="white"/>
</g>
<defs>
<clipPath id="clip0_1_1734">
<rect width="153.391" height="153.391" fill="white" transform="translate(164.902 41.353) rotate(125.71)"/>
</clipPath>
</defs>
</svg>
