<svg width="48" height="48" viewBox="0 0 48 48" fill="none" xmlns="http://www.w3.org/2000/svg">
<path d="M23.998 2.6875e-08C19.4494 0.009223 14.9976 1.31378 11.1636 3.76096L12.0718 5.07515C15.6547 2.80301 19.8064 1.59659 24.0479 1.59659C26.7724 1.59659 29.477 2.09352 32.0219 3.06545L32.6507 1.59758C29.9055 0.541423 26.9893 -0.000139296 24.0479 2.6875e-08H23.998ZM34.3074 2.30707L33.6786 3.77493C39.0978 6.3604 43.2495 11.0164 45.1956 16.6943L46.7226 16.2353C45.2854 9.7292 41.1337 4.52034 34.3074 2.30707ZM23.988 3.49253C20.1557 3.50351 16.3932 4.59218 13.1497 6.63482L23.8583 22.1028C26.972 16.5347 29.3173 10.7271 31.2734 4.80972C28.968 3.93858 26.513 3.49253 24.0479 3.49253H23.988ZM26.9221 4.38363L28.8283 6.76454L27.4311 7.88714L25.5249 5.50523L26.9221 4.38363ZM9.68659 4.78278C2.20953 8.80119 0.558833 14.8882 0.215519 21.5539L1.81033 21.6537C2.44806 15.4769 5.63069 9.83897 10.5948 6.09597L9.68659 4.78278ZM20.6746 5.48827C21.493 5.48827 22.2515 5.69982 22.8603 6.10694C23.469 6.51308 23.9581 7.17965 23.9581 7.98293C23.9581 8.79121 23.469 9.4498 22.8603 9.85892C22.2515 10.2681 21.493 10.4776 20.6746 10.4776C19.8563 10.4776 19.0978 10.2681 18.489 9.85892C17.8802 9.4498 17.3912 8.79121 17.3912 7.98293C17.3912 7.17965 17.8802 6.51308 18.489 6.10694C19.0978 5.69982 19.8563 5.48827 20.6746 5.48827ZM32.9301 5.5192C31.1038 11.4356 28.7684 17.1434 25.6347 22.5318L32.4511 20.4962C32.1317 20.0072 31.9521 19.4085 31.9521 18.7799C31.9521 17.2831 33 15.906 34.487 15.906C35.974 15.906 37.0219 17.2831 37.0219 18.7799C37.0219 18.8996 37.012 19.0193 37.002 19.1491L43.3792 17.2431C41.5928 12.1041 37.8303 7.88115 32.9301 5.5192ZM20.6746 7.28443C20.1756 7.28443 19.7465 7.42812 19.487 7.59975C19.2275 7.77039 19.1876 7.9041 19.1876 7.98293C19.1876 8.06177 19.2275 8.19548 19.487 8.36612C19.7465 8.54174 20.1756 8.68144 20.6746 8.68144C21.1736 8.68144 21.6028 8.54174 21.8622 8.36612C22.1217 8.19548 22.1617 8.06177 22.1617 7.98293C22.1617 7.9041 22.1217 7.77039 21.8622 7.59975C21.6028 7.42812 21.1736 7.28443 20.6746 7.28443ZM11.6726 7.65563C7.18559 11.0663 4.30235 16.1754 3.70454 21.7735C9.95605 21.8333 16.1936 21.9531 22.2615 22.931L20.3553 20.1769L18.509 21.1847L17.6507 19.6081L19.3273 18.69L13.6387 10.4976L11.3333 12.3237L10.2155 10.9067L12.6107 9.01074L11.6726 7.65563ZM34.986 9.03069L36.2036 11.0364L34.6667 11.9744L33.4491 9.96869L34.986 9.03069ZM24.3573 11.3358L25.1357 12.9523L22.1217 14.3793L21.3433 12.7627L24.3573 11.3358ZM10.8143 13.4712C12.5109 13.4712 13.7684 15.0279 13.7684 16.7642C13.7684 18.5005 12.5109 20.0571 10.8143 20.0571C9.11772 20.0571 7.86024 18.5005 7.86024 16.7642C7.86024 15.0279 9.11772 13.4712 10.8143 13.4712ZM40.5549 14.3992L40.9241 17.1533L39.1477 17.3928L38.7784 14.6387L40.5549 14.3992ZM10.8143 15.2674C10.2455 15.2674 9.65665 15.8561 9.65665 16.7642C9.65665 17.6722 10.2455 18.261 10.8143 18.261C11.3832 18.261 11.972 17.6722 11.972 16.7642C11.972 15.8561 11.3832 15.2674 10.8143 15.2674ZM34.487 17.7022C34.1677 17.7022 33.7485 18.0913 33.7485 18.7799C33.7485 19.4684 34.1677 19.8575 34.487 19.8575C34.8064 19.8575 35.2255 19.4684 35.2255 18.7799C35.2255 18.0913 34.8064 17.7022 34.487 17.7022ZM47.2415 17.9616L45.7046 18.4106C46.1637 20.2168 46.4032 22.0828 46.4032 23.9488C46.4032 28.6488 44.9261 33.229 42.1717 37.0408L43.4291 38.0287C46.4032 33.9375 48 29.008 48 23.9488C48 21.9331 47.7505 19.9174 47.2415 17.9616ZM43.8882 18.9595L31.513 22.6616L32.511 23.37L31.473 24.8269L29.3373 23.3102L25.9641 24.318C30.4651 28.5989 35.7146 32.0714 40.6746 35.8633C43.0499 32.3908 43.8084 28.2197 44.507 23.9488C44.7764 22.2824 44.2974 20.586 43.8882 18.9595ZM0.102745 23.3501C0.0927647 23.5497 0.102745 23.7492 0.0927647 23.9488C-0.414222 30.9638 0.996957 37.7892 8.33329 42.0302L9.33729 40.7828C4.479 36.5419 1.69157 30.405 1.69257 23.9488V23.4499L0.102745 23.3501ZM3.59277 23.5696V23.9488C3.59277 26.1441 3.94407 28.3195 4.63568 30.405L5.73249 28.06L7.35924 28.8184L5.54986 32.6901C6.74147 35.2147 8.43509 37.4599 10.5249 39.306L22.2515 24.7371L9.36723 23.9288L6.91213 26.3736L5.64267 25.0964L6.96203 23.7792L3.59277 23.5696ZM40.2754 24.8768C40.505 24.8668 40.7345 24.8968 40.9641 24.9766C41.6826 25.1961 42.1916 25.7849 42.4311 26.4535C42.6707 27.1021 42.6707 27.8405 42.4411 28.5689C42.2215 29.2874 41.7824 29.8961 41.2235 30.3052C40.6447 30.6944 39.8962 30.894 39.1677 30.6644C38.9082 30.5846 38.6786 30.4549 38.479 30.2952L37.7006 31.1833L34.9461 28.8084L36.1237 27.4513L37.5708 28.6987C37.471 28.1698 37.511 27.611 37.6806 27.0721C37.9102 26.3437 38.3393 25.745 38.9082 25.3458C39.3074 25.0664 39.7864 24.8868 40.2754 24.8768ZM14.2175 25.4256L17.1816 26.5433L16.5429 28.2197L13.5788 27.1021L14.2175 25.4256ZM25.0658 25.8847L25.5948 34.3266C26.0738 34.4264 26.513 34.5861 26.9022 34.8156C27.5708 35.2047 28.1397 35.8733 28.1397 36.7215C28.1397 37.5697 27.5708 38.2383 26.9022 38.6274C26.5928 38.807 26.2535 38.9467 25.8942 39.0465L26.2235 44.2853C27.3313 44.1656 28.4191 43.956 29.487 43.6667L29.8363 40.7629L31.6128 40.9824L31.3633 43.048C34.5369 41.8406 37.3513 39.8548 39.5669 37.2803C37.501 35.6538 35.0359 34.4963 33.3593 32.4007L32.6407 34.4064L30.9441 33.8077L31.8623 31.2233C29.0479 29.8262 27.2914 27.6908 25.0658 25.8847ZM23.2994 26.3137L11.9221 40.4236C15.4351 43.0081 19.6866 44.4051 24.0479 44.4051H24.4271L24.0978 39.1962C23.3792 39.1463 22.7205 38.9567 22.1716 38.6274C21.503 38.2383 20.9341 37.5697 20.9341 36.7215C20.9341 35.8733 21.503 35.2047 22.1716 34.8156C22.6407 34.5362 23.1996 34.3566 23.7984 34.2767L23.2994 26.3137ZM40.3253 26.673C40.2255 26.663 40.1058 26.7029 39.9461 26.8027C39.7365 26.9524 39.517 27.2418 39.3972 27.611C39.2874 27.9802 39.3074 28.3394 39.3872 28.5789C39.477 28.8184 39.5968 28.9182 39.7066 28.9481C39.8263 28.988 39.976 28.9681 40.1856 28.8284C40.3852 28.6887 40.6148 28.3993 40.7345 28.0301C40.8443 27.6609 40.8243 27.2917 40.7445 27.0621C40.6547 26.8227 40.5349 26.7229 40.4251 26.683C40.3952 26.673 40.3653 26.673 40.3253 26.673ZM11.0539 29.6566C11.483 29.6666 11.9121 29.7664 12.3113 29.956C13.7385 30.6445 14.4371 32.3608 13.7485 33.7878C13.0598 35.2247 11.2834 35.7536 9.85625 35.065C8.4271 34.3765 7.73449 32.6702 8.42112 31.2332C8.91812 30.2054 9.96603 29.6466 11.0539 29.6566ZM10.964 31.4428C10.5648 31.4528 10.2056 31.6623 10.0359 32.0116C9.79637 32.5205 10.0259 33.1591 10.6347 33.4485C11.2435 33.7379 11.8822 33.5183 12.1317 33.0094C12.3712 32.5105 12.1417 31.8719 11.5329 31.5825C11.3433 31.4827 11.1437 31.4428 10.964 31.4428ZM24.5369 36.023C23.9381 36.023 23.3992 36.1827 23.0798 36.3623C22.7605 36.5519 22.7305 36.6916 22.7305 36.7215C22.7305 36.7514 22.7605 36.8911 23.0798 37.0807C23.3992 37.2603 23.9381 37.42 24.5369 37.42C25.1357 37.42 25.6746 37.2603 25.994 37.0807C26.3134 36.8911 26.3433 36.7514 26.3433 36.7215C26.3433 36.6916 26.3134 36.5519 25.994 36.3623C25.6746 36.1827 25.1357 36.023 24.5369 36.023ZM41.0539 38.4578C37.3213 42.8284 32.0619 45.5925 26.3433 46.1813L26.4431 47.7779C32.8303 48.1072 38.8782 46.6503 42.3114 39.4457L41.0539 38.4578ZM16.5129 38.7571L19.3173 39.0166L19.1577 40.8128L16.3533 40.5533L16.5129 38.7571ZM10.7345 41.9004L9.73649 43.1478C13.3393 47.6382 18.7385 48.3067 24.0479 47.8976C24.2475 47.8777 24.4471 47.8976 24.6467 47.8876L24.5469 46.291C24.3772 46.301 24.2175 46.301 24.0479 46.301C19.2575 46.301 14.5868 44.7543 10.7345 41.9004Z" fill="#EDEDED"/>
</svg>
