<svg width="154" height="136" viewBox="0 0 154 136" fill="none" xmlns="http://www.w3.org/2000/svg">
<g opacity="0.2">
<path d="M64.8263 5.5625C48.9813 5.59463 33.4733 10.1397 20.1177 18.6657L23.2813 23.2443C35.7622 15.3282 50.2247 11.125 65.0001 11.125C74.4911 11.125 83.9126 12.8563 92.7778 16.2425L94.9681 11.1285C85.4052 7.44882 75.2464 5.56201 65.0001 5.5625H64.8263ZM100.739 13.6003L98.5489 18.7143C117.427 27.7221 131.889 43.9437 138.668 63.7254L143.988 62.1262C138.981 39.459 124.519 21.3113 100.739 13.6003ZM64.7915 17.7305C51.4415 17.7687 38.3348 21.5616 27.036 28.6782L64.3395 82.5684C75.1864 63.1691 83.3563 42.9355 90.1704 22.3195C82.1395 19.2845 73.5872 17.7305 65.0001 17.7305H64.7915ZM75.0126 20.835L81.6528 29.1301L76.7856 33.0412L70.1454 24.7427L75.0126 20.835ZM14.9723 22.2257C-11.0741 36.2258 -16.8243 57.4328 -18.0202 80.6562L-12.4647 81.0039C-10.2432 59.484 0.843596 39.8414 18.136 26.8008L14.9723 22.2257ZM53.2493 24.6836C56.1001 24.6836 58.7423 25.4206 60.863 26.8391C62.9837 28.254 64.6872 30.5764 64.6872 33.375C64.6872 36.191 62.9837 38.4855 60.863 39.9109C58.7423 41.3363 56.1001 42.0664 53.2493 42.0664C50.3985 42.0664 47.7563 41.3363 45.6356 39.9109C43.5149 38.4855 41.8114 36.191 41.8114 33.375C41.8114 30.5764 43.5149 28.254 45.6356 26.8391C47.7563 25.4206 50.3985 24.6836 53.2493 24.6836ZM95.9415 24.7914C89.5794 45.4039 81.4442 65.2898 70.5278 84.0633L94.2727 76.9711C93.1602 75.2676 92.5345 73.1816 92.5345 70.9914C92.5345 65.7766 96.1849 60.9789 101.365 60.9789C106.545 60.9789 110.195 65.7766 110.195 70.9914C110.195 71.4086 110.161 71.8258 110.126 72.2777L132.341 65.6375C126.118 47.7332 113.011 33.0204 95.9415 24.7914ZM53.2493 30.9414C51.511 30.9414 50.0161 31.442 49.1122 32.04C48.2083 32.6345 48.0692 33.1003 48.0692 33.375C48.0692 33.6496 48.2083 34.1155 49.1122 34.71C50.0161 35.3219 51.511 35.8086 53.2493 35.8086C54.9876 35.8086 56.4825 35.3219 57.3864 34.71C58.2903 34.1155 58.4294 33.6496 58.4294 33.375C58.4294 33.1003 58.2903 32.6345 57.3864 32.04C56.4825 31.442 54.9876 30.9414 53.2493 30.9414ZM21.8907 32.2347C6.26008 44.1176 -3.78371 61.9176 -5.86617 81.4211C15.911 81.6297 37.6395 82.0469 58.777 85.4539L52.1368 75.8586L45.7052 79.3699L42.7153 73.8769L48.5559 70.6785L28.7395 42.1359L20.7087 48.498L16.8149 43.5613L25.1587 36.9559L21.8907 32.2347ZM103.103 37.0254L107.345 44.0133L101.991 47.2812L97.7493 40.2934L103.103 37.0254ZM66.0778 45.0562L68.7895 50.6883L58.2903 55.6598L55.5786 50.0277L66.0778 45.0562ZM18.9009 52.4961C24.811 52.4961 29.1915 57.9195 29.1915 63.9687C29.1915 70.018 24.811 75.4414 18.9009 75.4414C12.9907 75.4414 8.61024 70.018 8.61024 63.9687C8.61024 57.9195 12.9907 52.4961 18.9009 52.4961ZM122.502 55.7293L123.789 65.3246L117.6 66.159L116.314 56.5637L122.502 55.7293ZM18.9009 58.7539C16.9192 58.7539 14.868 60.8051 14.868 63.9687C14.868 67.1324 16.9192 69.1836 18.9009 69.1836C20.8825 69.1836 22.9337 67.1324 22.9337 63.9687C22.9337 60.8051 20.8825 58.7539 18.9009 58.7539ZM101.365 67.2367C100.252 67.2367 98.7923 68.5926 98.7923 70.9914C98.7923 73.3902 100.252 74.7461 101.365 74.7461C102.477 74.7461 103.938 73.3902 103.938 70.9914C103.938 68.5926 102.477 67.2367 101.365 67.2367ZM145.795 68.1406L140.441 69.7051C142.041 75.9977 142.875 82.4988 142.875 89C142.875 105.375 137.73 121.332 128.134 134.612L132.515 138.054C142.875 123.8 148.438 106.626 148.438 89C148.438 81.9773 147.568 74.9547 145.795 68.1406ZM134.114 71.6172L91.0048 84.5152L94.4813 86.9836L90.8657 92.0594L83.4259 86.775L71.6751 90.2863C87.3544 105.201 105.641 117.299 122.92 130.51C131.194 118.412 133.836 103.88 136.27 89C137.208 83.1941 135.54 77.284 134.114 71.6172ZM-18.4131 86.9141C-18.4478 87.6094 -18.4131 88.3047 -18.4478 89C-20.2139 113.44 -15.2981 137.22 10.2581 151.995L13.7556 147.65C-3.16836 132.874 -12.8784 111.493 -12.8749 89V87.2617L-18.4131 86.9141ZM-6.25554 87.6789V89C-6.25554 96.6484 -5.03179 104.227 -2.62254 111.493L1.19821 103.323L6.865 105.966L0.561995 119.455C4.71301 128.25 10.6127 136.073 17.8927 142.504L58.7423 91.7465L13.8598 88.9305L5.3075 97.448L0.885315 92.998L5.48133 88.409L-6.25554 87.6789ZM121.529 92.2332C122.329 92.1984 123.128 92.3027 123.928 92.5808C126.431 93.3457 128.204 95.3969 129.038 97.7262C129.873 99.9859 129.873 102.559 129.073 105.096C128.308 107.6 126.779 109.72 124.832 111.146C122.815 112.502 120.208 113.197 117.67 112.397C116.766 112.119 115.966 111.667 115.271 111.111L112.559 114.205L102.964 105.931L107.066 101.203L112.107 105.548C111.76 103.706 111.899 101.759 112.49 99.8816C113.29 97.3437 114.784 95.2578 116.766 93.8672C118.157 92.8937 119.825 92.268 121.529 92.2332ZM30.7559 94.1453L41.0813 98.0391L38.8563 103.88L28.5309 99.9859L30.7559 94.1453ZM68.5462 95.7445L70.3888 125.156C72.0575 125.504 73.5872 126.06 74.9431 126.86C77.2723 128.216 79.254 130.545 79.254 133.5C79.254 136.455 77.2723 138.784 74.9431 140.14C73.8653 140.766 72.6833 141.253 71.4317 141.6L72.579 159.852C76.438 159.435 80.2274 158.705 83.9473 157.697L85.1641 147.58L91.3524 148.345L90.4833 155.541C101.539 151.335 111.343 144.416 119.061 135.447C111.864 129.78 103.277 125.747 97.4364 118.446L94.9333 125.434L89.0231 123.348L92.2216 114.344C82.4177 109.477 76.2989 102.037 68.5462 95.7445ZM62.3927 97.2394L22.7598 146.398C34.9973 155.402 49.8075 160.27 65.0001 160.27H66.3212L65.1739 142.122C62.6708 141.948 60.3763 141.287 58.4641 140.14C56.1348 138.784 54.1532 136.455 54.1532 133.5C54.1532 130.545 56.1348 128.216 58.4641 126.86C60.0981 125.886 62.045 125.261 64.1309 124.982L62.3927 97.2394ZM121.703 98.491C121.355 98.4562 120.938 98.5953 120.382 98.943C119.652 99.4644 118.887 100.473 118.47 101.759C118.087 103.045 118.157 104.297 118.435 105.131C118.748 105.966 119.165 106.313 119.547 106.418C119.965 106.557 120.486 106.487 121.216 106C121.911 105.514 122.711 104.505 123.128 103.219C123.511 101.933 123.441 100.646 123.163 99.8469C122.85 99.0125 122.433 98.6648 122.05 98.5258C121.946 98.491 121.842 98.491 121.703 98.491ZM19.7352 108.886C21.2302 108.921 22.7251 109.268 24.1157 109.929C29.0872 112.328 31.5208 118.307 29.122 123.279C26.7231 128.285 20.5348 130.128 15.5634 127.729C10.5849 125.33 8.17219 119.385 10.5641 114.379C12.2954 110.798 15.9458 108.851 19.7352 108.886ZM19.4223 115.109C18.0317 115.144 16.7802 115.874 16.1891 117.091C15.3548 118.864 16.1544 121.089 18.2751 122.097C20.3958 123.105 22.6208 122.34 23.4899 120.567C24.3243 118.829 23.5247 116.604 21.404 115.596C20.7434 115.248 20.0481 115.109 19.4223 115.109ZM66.7036 131.066C64.6177 131.066 62.7403 131.623 61.6278 132.248C60.5153 132.909 60.411 133.396 60.411 133.5C60.411 133.604 60.5153 134.091 61.6278 134.752C62.7403 135.377 64.6177 135.934 66.7036 135.934C68.7895 135.934 70.6669 135.377 71.7794 134.752C72.8919 134.091 72.9962 133.604 72.9962 133.5C72.9962 133.396 72.8919 132.909 71.7794 132.248C70.6669 131.623 68.7895 131.066 66.7036 131.066ZM124.241 139.549C111.238 154.777 92.9169 164.407 72.9962 166.458L73.3438 172.02C95.5938 173.168 116.662 168.092 128.621 142.991L124.241 139.549ZM38.752 140.592L48.5212 141.496L47.9649 147.754L38.1958 146.85L38.752 140.592ZM18.6227 151.543L15.1462 155.889C27.6966 171.534 46.5048 173.863 65.0001 172.437C65.6954 172.368 66.3907 172.437 67.086 172.403L66.7384 166.84C66.1473 166.875 65.5911 166.875 65.0001 166.875C48.3126 166.875 32.0423 161.486 18.6227 151.543Z" fill="white"/>
</g>
</svg>
