<svg width="64" height="64" viewBox="0 0 64 64" fill="none" xmlns="http://www.w3.org/2000/svg">
<path d="M13.133 36.8H56.333M15.533 56L17.765 53.768C19.037 52.496 19.6706 51.8624 20.4698 51.5024C21.269 51.1424 22.1642 51.0848 23.9546 50.9744L31.7618 50.4848C35.597 50.2448 37.517 50.1248 39.2042 49.316C40.8914 48.5048 42.185 47.084 44.7722 44.2376L51.533 36.8H43.133L38.8298 41.1032C38.5418 41.3912 38.4002 41.5328 38.2538 41.6576C37.4879 42.3091 36.5368 42.7037 35.5346 42.7856C35.3402 42.8 35.1386 42.8 34.733 42.8M34.733 42.8C34.733 41.684 34.733 41.1272 34.6418 40.664C34.4568 39.7324 33.9995 38.8767 33.3279 38.2051C32.6563 37.5335 31.8006 37.0763 30.869 36.8912C30.4058 36.8 29.849 36.8 28.733 36.8H26.8562C24.3482 36.8 23.093 36.8 21.9194 37.1024C21.0438 37.3273 20.2043 37.6747 19.4258 38.1344C18.3794 38.7536 17.4938 39.6392 15.7202 41.4128L8.33301 48.8M34.733 42.8H26.333M15.533 30.8C15.533 25.7078 17.5559 20.8242 21.1566 17.2236C24.7573 13.6229 29.6409 11.6 34.733 11.6M34.733 11.6C39.8252 11.6 44.7088 13.6229 48.3095 17.2236C51.9102 20.8242 53.933 25.7078 53.933 30.8M34.733 11.6V8" stroke="white" stroke-width="3" strokeLinecap="round" strokeLinejoin="round"/>
</svg>
