<svg width="64" height="64" viewBox="0 0 64 64" fill="none" xmlns="http://www.w3.org/2000/svg">
<path d="M46.0003 51C48.7617 51 51.0003 48.8734 51.0003 46.25C51.0003 43.6266 48.7617 41.5 46.0003 41.5C43.2389 41.5 41.0003 43.6266 41.0003 46.25C41.0003 48.8734 43.2389 51 46.0003 51Z" stroke="white" stroke-width="3"/>
<path d="M20.9998 51C23.7612 51 25.9998 48.8734 25.9998 46.25C25.9998 43.6266 23.7612 41.5 20.9998 41.5C18.2384 41.5 15.9998 43.6266 15.9998 46.25C15.9998 48.8734 18.2384 51 20.9998 51Z" stroke="white" stroke-width="3"/>
<path d="M16 46.1835C13.2575 46.0552 11.55 45.6681 10.33 44.5115C9.11 43.3549 8.705 41.7304 8.57 39.125M26 46.25H41M51 46.1835C53.7425 46.0552 55.45 45.6681 56.67 44.5115C58.5 42.7706 58.5 39.9729 58.5 34.375V29.625H46.75C44.8875 29.625 43.9575 29.625 43.205 29.3922C42.4546 29.1606 41.7726 28.7635 41.2147 28.2335C40.6568 27.7035 40.2388 27.0556 39.995 26.3427C39.75 25.6279 39.75 24.7444 39.75 22.975C39.75 20.3221 39.75 18.9969 39.3825 17.9234C39.0167 16.8541 38.3898 15.8822 37.5529 15.0872C36.7161 14.2922 35.6931 13.6966 34.5675 13.3491C33.4375 13 32.0425 13 29.25 13H8.5M8.5 22.5H23.5M8.5 29.625H18.5" stroke="white" stroke-width="3" strokeLinecap="round" strokeLinejoin="round"/>
<path d="M39.7495 17.75H44.302C47.942 17.75 49.7595 17.75 51.2395 18.5908C52.722 19.4291 53.5845 20.9515 55.3095 23.9962L58.4995 29.625" stroke="white" stroke-width="3" strokeLinecap="round" strokeLinejoin="round"/>
</svg>
